<?xml version="1.0" encoding="UTF-8" standalone="no"?>
<!-- Generator: Gravit.io -->
<svg xmlns="http://www.w3.org/2000/svg" xmlns:xlink="http://www.w3.org/1999/xlink" style="isolation:isolate" viewBox="0 0 340 340" width="340pt" height="340pt"><defs><clipPath id="_clipPath_NMy8TCp4qEE7XH9Hv0EAQnfrgHiAKun3"><rect width="340" height="340"/></clipPath></defs><g clip-path="url(#_clipPath_NMy8TCp4qEE7XH9Hv0EAQnfrgHiAKun3)"><path d="M 40.8 0 L 299.2 0 C 321.718 0 340 18.282 340 40.8 L 340 299.2 C 340 321.718 321.718 340 299.2 340 L 40.8 340 C 18.282 340 0 321.718 0 299.2 L 0 40.8 C 0 18.282 18.282 0 40.8 0 Z" style="stroke:none;fill:#FFFFFF;stroke-miterlimit:10;"/><path d=" M 227.997 223.276 L 113.557 284.406 C 112.901 284.755 112.1 284.684 111.517 284.226 Q 71.077 252.466 59.227 201.366 C 59.194 201.211 59.232 201.049 59.331 200.926 C 59.429 200.802 59.578 200.728 59.737 200.726 Q 144.457 199.656 228.587 188.676 C 228.702 188.662 228.807 188.599 228.873 188.504 C 228.94 188.409 228.963 188.289 228.937 188.176 Q 227.597 182.166 225.887 176.806 Q 219.177 155.796 200.747 143.776 Q 186.407 134.406 169.067 131.666 Q 153.927 129.266 139.257 130.726 Q 120.827 132.556 103.887 138.756 C 103.286 138.927 102.64 138.677 102.337 138.156 L 94.847 125.576 C 94.779 125.472 94.759 125.345 94.794 125.226 C 94.828 125.108 94.913 125.009 95.027 124.956 Q 127.227 110.376 162.007 114.226 Q 183.947 116.656 203.017 127.656 Q 211.917 132.796 219.147 139.396 Q 244.417 162.476 247.577 198.216 Q 249.077 215.206 245.697 231.916 Q 245.497 232.906 243.517 234.896 Q 241.427 237.006 240.957 237.516 Q 229.177 250.446 216.997 263.366 Q 216.517 263.886 216.407 263.186 L 213.257 243.706 C 213.157 243.172 213.299 242.623 213.647 242.196 L 228.147 223.436 Q 228.467 223.026 227.997 223.276 Z  M 209.567 211.716 C 209.567 206.745 205.537 202.716 200.567 202.716 C 195.596 202.716 191.567 206.745 191.567 211.716 C 191.567 216.686 195.596 220.716 200.567 220.716 C 205.537 220.716 209.567 216.686 209.567 211.716 Z  M 186.957 227.766 Q 178.207 219.676 171.437 210.226 C 171.249 209.985 170.945 209.85 170.627 209.866 L 159.877 210.776 C 159.72 210.788 159.582 210.88 159.515 211.018 C 159.447 211.156 159.459 211.319 159.547 211.446 Q 167.537 223.286 177.457 232.576 C 177.673 232.769 177.99 232.817 178.257 232.696 L 186.877 228.326 C 186.982 228.277 187.055 228.179 187.071 228.067 C 187.087 227.954 187.044 227.841 186.957 227.766 Z  M 166.677 236.546 Q 155.277 225.666 146.777 212.396 C 146.612 212.142 146.319 211.989 146.007 211.996 L 133.747 212.926 C 133.634 212.938 133.535 213.007 133.487 213.106 C 133.438 213.206 133.445 213.323 133.507 213.416 Q 142.797 229.936 157.247 242.806 C 157.76 243.257 158.506 243.348 159.117 243.036 L 167.817 238.226 C 167.948 238.17 168.044 238.06 168.075 237.928 C 168.107 237.796 168.07 237.659 167.977 237.556 Q 167.797 237.326 167.547 237.156 Q 166.777 236.636 166.677 236.546 Z  M 135.727 253.746 Q 136.037 254.196 136.437 254.576 C 136.661 254.792 137 254.84 137.277 254.696 L 148.337 248.496 C 148.45 248.435 148.525 248.325 148.537 248.201 C 148.549 248.078 148.496 247.956 148.397 247.876 Q 132.667 232.806 121.697 213.966 C 121.545 213.708 121.257 213.55 120.947 213.556 L 107.997 214.196 C 107.877 214.204 107.77 214.269 107.714 214.368 C 107.657 214.467 107.658 214.587 107.717 214.686 Q 117.667 236.466 135.047 252.916 Q 135.357 253.206 135.727 253.746 Z  M 109.137 262.086 Q 111.147 264.086 113.577 266.256 C 114.074 266.705 114.8 266.789 115.387 266.466 L 125.027 261.216 C 125.156 261.142 125.243 261.011 125.261 260.864 C 125.278 260.716 125.225 260.568 125.117 260.466 Q 104.577 241.386 94.127 215.256 C 94.014 214.977 93.741 214.795 93.437 214.796 L 79.437 215.186 C 79.304 215.192 79.182 215.261 79.111 215.37 C 79.039 215.479 79.027 215.616 79.077 215.736 Q 89.227 242.296 109.137 262.086 Z " fill="rgb(0,0,0)"/><path d=" M 165.007 18.186 L 166.007 18.186 L 176.627 20.696 C 177.066 20.803 177.395 21.136 177.467 21.546 L 180.947 40.806 Q 181.027 41.236 181.317 40.916 L 195.047 25.726 Q 195.427 25.716 195.717 25.976 Q 196.477 26.786 196.817 26.916 Q 218.697 35.326 236.307 50.706 C 236.602 50.896 236.719 51.222 236.597 51.516 L 233.787 61.636 Q 233.437 62.886 234.637 62.546 Q 239.777 61.096 244.787 60.786 C 245.68 60.733 246.544 61.113 247.107 61.806 Q 258.797 76.306 265.517 92.686 Q 266.057 93.986 267.047 94.976 Q 266.967 95.226 267.047 95.476 Q 263.667 97.346 259.747 97.476 Q 258.407 97.526 259.227 98.576 Q 268.947 111.166 272.487 126.776 Q 274.837 137.166 276.227 147.526 Q 276.377 148.596 275.407 148.196 L 270.097 145.986 Q 268.867 145.476 269.257 146.706 Q 273.957 161.726 274.177 177.326 Q 274.257 183.096 273.197 190.426 Q 272.147 197.726 270.947 203.416 Q 269.677 209.416 269.507 213.976 Q 267.687 226.286 272.547 237.676 Q 274.087 241.276 277.107 243.676 C 277.363 243.857 277.671 243.971 277.997 244.006 L 280.507 244.186 Q 281.037 244.226 280.557 244.436 Q 276.937 245.976 273.757 244.226 Q 260.577 236.986 258.697 221.286 Q 257.327 209.906 257.847 201.216 Q 258.717 186.786 255.597 172.706 Q 249.487 145.056 232.657 122.896 Q 226.487 114.766 219.527 107.836 Q 197.407 85.806 166.757 77.976 Q 151.507 74.086 135.087 73.906 Q 129.927 73.856 122.437 74.476 Q 115.937 75.016 109.827 75.646 C 108.812 75.748 107.837 75.221 107.367 74.316 Q 94.487 49.706 75.737 29.786 C 75.482 29.514 75.376 29.134 75.454 28.769 C 75.532 28.404 75.783 28.101 76.127 27.956 Q 91.527 21.406 107.057 18.416 Q 109.307 17.986 110.567 19.806 L 120.387 34.006 Q 121.337 35.376 121.907 33.786 L 127.997 16.876 C 128.104 16.595 128.372 16.388 128.697 16.336 Q 133.277 15.646 135.507 15.726 Q 150.317 16.256 165.007 18.186 Z " fill="rgb(0,0,0)"/><path d=" M 204.567 111.166 Q 211.657 117.546 216.987 124.506 Q 217.167 124.746 217.457 125.026 Q 218.587 126.086 217.077 125.796 Q 216.777 125.736 216.487 125.536 Q 191.107 107.616 160.027 104.536 Q 144.767 103.036 128.707 105.156 C 128.318 105.202 127.961 104.946 127.897 104.576 L 125.137 88.046 C 125.113 87.915 125.148 87.78 125.232 87.675 C 125.316 87.57 125.441 87.505 125.577 87.496 Q 144.437 85.776 162.947 89.786 Q 186.507 94.896 204.567 111.166 Z " fill="rgb(0,0,0)"/><path d=" M 145.967 177.196 Q 112.437 188.036 77.237 190.226 Q 72.387 190.536 67.557 191.136 C 67.4 191.138 67.249 191.102 67.137 191.036 Q 66.937 190.846 67.257 190.716 Q 74.187 187.826 80.867 184.386 Q 91.757 178.776 100.317 170.036 Q 109.207 160.976 106.367 147.966 C 106.304 147.687 106.458 147.404 106.727 147.306 Q 132.617 138.306 158.257 139.476 Q 170.627 140.046 184.247 145.246 Q 209.217 154.796 217.397 179.896 C 217.452 180.058 217.432 180.237 217.34 180.383 C 217.249 180.528 217.097 180.625 216.927 180.646 Q 178.237 185.426 139.997 187.886 Q 138.067 188.006 136.627 188.576 Q 134.927 189.256 136.187 187.926 L 146.107 177.406 Q 146.457 177.036 145.967 177.196 Z " fill="rgb(0,0,0)"/><path d=" M 154.007 301.766 L 150.007 303.516 L 98.937 324.166 Q 97.987 324.546 98.527 323.686 L 114.977 297.456 Q 115.737 296.236 116.967 295.566 L 201.507 249.246 C 201.684 249.154 201.897 249.154 202.074 249.246 C 202.252 249.338 202.373 249.51 202.397 249.706 L 206.257 279.796 C 206.302 280.085 206.137 280.367 205.857 280.476 L 154.007 301.766 Z " fill="rgb(0,0,0)"/></g></svg>