<?xml version="1.0" encoding="UTF-8" standalone="no"?>
<!-- Generator: Gravit.io -->
<svg xmlns="http://www.w3.org/2000/svg" xmlns:xlink="http://www.w3.org/1999/xlink" style="isolation:isolate" viewBox="0 0 471 127" width="471pt" height="127pt"><defs><clipPath id="_clipPath_3yX40eZgHaLUv5qR8Rz3utGqKH2v7Vb1"><rect width="471" height="127"/></clipPath></defs><g clip-path="url(#_clipPath_3yX40eZgHaLUv5qR8Rz3utGqKH2v7Vb1)"><clipPath id="_clipPath_qS3xFIqZ0Dx7aamU6KoL7nwPMfRscY8K"><rect x="109" y="0" width="362" height="127" transform="matrix(1,0,0,1,0,0)" fill="rgb(255,255,255)"/></clipPath><g clip-path="url(#_clipPath_qS3xFIqZ0Dx7aamU6KoL7nwPMfRscY8K)"><g><path d=" M 346.08 99.19 C 346.534 99.279 346.911 99.589 347.085 100.014 C 347.258 100.439 347.204 100.923 346.94 101.3 Q 343.95 105.69 338.75 108.25 Q 335.29 109.96 331.97 109.75 Q 331.36 109.71 325.41 108.34 Q 318.53 106.76 315.81 105.44 Q 313.29 104.21 312.89 100.68 Q 310.72 81.56 311.75 66.25 Q 312.31 57.97 318.31 52.4 Q 320.71 50.18 324.68 47.61 Q 327.95 45.49 331.75 43.88 C 332.241 43.674 332.807 43.755 333.22 44.09 Q 342.24 51.48 348.94 61.07 Q 350.03 62.62 348.86 64.1 Q 344.72 69.37 339.35 73.82 Q 332.57 79.43 332.46 79.53 Q 328.85 82.9 326.31 86.06 Q 321.87 91.6 327.56 95.69 Q 330.13 97.53 336.5 97.94 Q 341.33 98.25 346.08 99.19 Z  M 330.69 59.28 Q 328.79 57.79 326.68 56.56 C 326.475 56.439 326.226 56.422 326.006 56.512 C 325.786 56.602 325.621 56.79 325.56 57.02 Q 322.5 68.54 324.96 79.95 C 324.985 80.062 325.062 80.154 325.168 80.198 C 325.273 80.242 325.394 80.231 325.49 80.17 Q 331.27 76.38 335.93 70.3 Q 337.41 68.36 336.38 66.15 Q 334.59 62.33 330.69 59.28 Z " fill="rgb(255,152,0)"/><path d=" M 204.55 100.34 C 204.803 100.554 204.877 100.913 204.73 101.21 Q 201.96 106.93 197.1 110.18 Q 195.67 111.14 194.07 110.53 Q 186.98 107.83 186.49 100.23 Q 186.37 98.36 185.85 95.77 C 185.814 95.589 185.688 95.438 185.516 95.371 C 185.343 95.304 185.149 95.33 185 95.44 Q 183.96 96.22 183.2 97.64 Q 180.07 103.54 176.26 109.03 Q 174.67 111.31 171.73 110.91 Q 166.39 110.19 161.69 107.56 Q 157.77 105.37 155.9 102.26 Q 154.51 99.95 154.39 94.95 Q 154.04 80.04 154.75 71.5 Q 155.4 63.69 160.54 57.74 Q 163.06 54.82 167.58 50.88 Q 171.14 47.78 175.3 45.49 C 175.586 45.34 175.92 45.307 176.23 45.4 Q 187.83 49.13 196.56 51.44 Q 199.66 52.26 199.34 55.38 Q 199.22 56.57 199.22 56.64 Q 198.27 76.06 198.51 95.97 C 198.513 96.91 199.166 97.725 200.09 97.94 Q 202.31 98.47 204.55 100.34 Z  M 184.66 61.63 Q 178.29 58.31 172.24 56.75 Q 170.37 56.26 169.43 57.95 Q 167.86 60.77 167.46 64 Q 166.32 73.21 166.46 82.49 Q 166.46 82.68 166.44 86.5 Q 166.42 91.12 167.56 93.69 Q 169.74 98.58 176.2 98.49 Q 178.39 98.46 179.56 96.6 Q 184.17 89.27 185.89 80.4 Q 186.5 77.27 186.5 72.56 Q 186.5 68.46 186.5 64.66 Q 186.5 62.59 184.66 61.63 Z " fill="rgb(255,152,0)"/><path d=" M 380.36 62.52 Q 384.73 53.26 393.61 48.05 Q 398.94 44.91 405.31 47.44 Q 412.31 50.22 416.15 52.62 Q 421.67 56.07 421.87 62.75 Q 422.26 75.7 421.5 88.64 Q 421.21 93.59 419.94 96.13 Q 418.29 99.45 415.06 102.31 Q 409.97 106.83 407.45 108.75 Q 402.09 112.82 395.5 111.25 Q 393.93 110.87 386.5 107.75 Q 382.5 106.07 380.48 102.89 Q 379.02 100.6 378.67 95.8 Q 378.11 88.07 378 75.25 Q 377.94 67.66 380.36 62.52 Z  M 390.24 62.16 Q 389.75 65.3 389.73 68.5 Q 389.66 79.63 390.46 90.74 Q 390.79 95.36 395.44 98.06 Q 399.17 100.23 402.71 100.64 Q 405.78 100.99 407.57 98.99 Q 409.39 96.95 409.69 93.69 Q 410.61 83.54 410.14 74.89 Q 410.14 74.83 410.1 70.61 Q 410.05 65.76 407.44 62.81 Q 403.57 58.45 396.77 57.11 Q 394.11 56.58 392.52 57.9 Q 390.67 59.43 390.24 62.16 Z " fill="rgb(255,152,0)"/><path d=" M 146.32 99.98 C 147.24 100.37 147.705 101.396 147.39 102.34 Q 146.24 105.89 143.38 109.86 Q 142.08 111.67 140.06 111.87 Q 138.83 111.99 136.43 111.59 Q 132.65 110.97 130.87 107.92 Q 129.77 106.03 129.67 101.88 Q 129.18 82.44 129.57 63 Q 129.99 42.11 129.25 27.5 Q 129.09 24.31 130.39 21.96 Q 131.67 19.65 134.56 18.75 Q 138.16 17.64 142.74 18.38 C 143.174 18.448 143.495 18.815 143.5 19.25 Q 143.61 27.03 143.02 34.78 Q 142.15 46.04 142.06 50.25 Q 141.61 71.49 141.73 92.74 Q 141.75 95.94 142.51 97.1 Q 143.63 98.82 146.32 99.98 Z " fill="rgb(255,152,0)"/><path d=" M 358.9 109.86 Q 356.33 108.16 356.23 104.99 Q 355.45 81.13 355.88 57.25 Q 356.2 39.32 355.5 28 Q 355.28 24.48 356.71 21.91 Q 358.12 19.38 361.38 18.61 Q 364.64 17.83 368.57 18.31 C 369.225 18.389 369.72 18.936 369.73 19.59 Q 369.93 29.15 369.03 37.75 Q 368.11 46.6 368.03 55.5 Q 367.89 72.7 367.98 89.89 Q 368.01 95.21 368.1 95.59 Q 368.81 98.78 372.45 100.07 Q 374.54 100.8 373.63 102.82 Q 371.92 106.62 368.78 110.76 C 368.374 111.307 367.758 111.661 367.08 111.74 Q 362.56 112.28 358.9 109.86 Z " fill="rgb(255,152,0)"/><path d=" M 435.04 41 Q 435.56 40.51 435.5 39.79 Q 437.69 35.07 439.81 30.31 Q 440.42 28.95 441.73 29.37 C 442.057 29.496 442.288 29.742 442.35 30.03 Q 444.47 36.32 443.94 42.93 Q 443.72 45.76 444.02 46.54 Q 444.79 48.53 447.75 48.5 Q 450.5 48.47 450.64 50.71 Q 450.74 52.16 450.3 53.79 Q 449.56 56.58 445.99 56.25 Q 443.56 56.03 443.49 58.47 Q 443.07 72.25 443.25 86.5 Q 443.34 93.41 444.55 97.83 C 444.624 98.137 444.827 98.401 445.11 98.56 Q 447.01 99.6 449.1 99.74 C 449.408 99.762 449.69 99.919 449.869 100.169 C 450.047 100.419 450.103 100.735 450.02 101.03 Q 448.23 107.46 444.06 111.35 C 443.824 111.566 443.511 111.681 443.19 111.67 Q 439.44 111.49 435.69 109.81 Q 432.7 108.47 431.96 105.4 Q 430.83 100.73 431.03 95.98 Q 431.25 90.64 431.25 90.51 Q 431.25 76.63 431.25 62.75 Q 431.25 59.63 430.38 57.58 Q 430.37 57.55 428.61 55.34 Q 427.22 53.59 429.04 51.29 Q 432.77 46.57 435.04 41 Z " fill="rgb(255,152,0)"/><path d=" M 305.31 97.69 C 305.875 97.713 306.369 98.013 306.562 98.451 C 306.755 98.888 306.608 99.377 306.19 99.69 Q 301.59 104.53 296.29 108.57 Q 293.7 110.54 291.2 110.79 Q 288.33 111.08 285.44 110.29 Q 280.41 108.91 274.69 106.06 Q 272.72 105.08 271.62 103.48 Q 270.81 102.3 270.46 99.83 Q 269.49 93 269.39 86.11 Q 269.23 75.71 269.48 72.39 Q 270.88 54 288.44 44.81 Q 290.04 43.97 291.54 44.96 Q 293.92 46.53 296.66 48.34 Q 298.63 49.65 300.19 50.06 Q 302.19 50.58 304.15 50.51 Q 307.61 50.39 305.95 53.42 Q 303.31 58.23 298.23 61.71 Q 296.6 62.83 294.83 61.79 L 285.75 56.48 C 285.355 56.273 284.886 56.245 284.467 56.403 C 284.048 56.56 283.721 56.888 283.57 57.3 Q 281.68 62.48 281.7 68 Q 281.75 77.62 281.75 87.25 Q 281.75 92.33 284.92 95.63 Q 287.73 98.56 292.47 99.09 Q 297.28 99.63 302.03 97.83 Q 303.65 97.21 305.31 97.69 Z " fill="rgb(255,152,0)"/><path d=" M 262.6 98.54 L 264.88 99.48 Q 266.68 100.23 265.71 102.05 Q 263.02 107.14 259.18 110.19 Q 257.84 111.26 256.18 110.87 Q 247.62 108.86 247.94 99.26 Q 248.44 84.06 248.96 68.87 Q 248.96 68.82 249.14 66.64 Q 249.53 61.93 245.75 59.75 Q 237.88 55.22 233.51 60.46 Q 231.21 63.22 229.85 70.09 Q 227.1 84 228.63 98.26 Q 230.14 112.35 215.92 110.31 C 215.133 110.196 214.577 109.481 214.66 108.69 Q 216.55 89.79 216.18 71.75 Q 216.09 67.08 215.29 62.49 Q 214.89 60.21 211.34 59.03 Q 209.59 58.46 209.99 56.67 Q 210.92 52.43 214.58 48.34 Q 217.16 45.47 220.33 46.53 Q 221.99 47.08 224.24 48.33 Q 226.26 49.44 227.42 51.42 Q 228.14 52.64 228.4 55.26 Q 228.59 57.27 229 59.26 Q 229.39 61.18 230.31 59.45 Q 232.99 54.42 236.06 49.31 Q 238.15 45.84 242.66 46.49 Q 250.94 47.69 258.68 50.84 Q 262.83 52.53 262.17 57.27 Q 259.47 76.43 260.5 95.77 Q 260.6 97.72 262.6 98.54 Z " fill="rgb(255,152,0)"/></g></g><clipPath id="_clipPath_WqpoNqGXDEk3EWynIr7tTE8mpA9Js93b"><rect x="16.657" y="0" width="85.687" height="127" transform="matrix(1,0,0,1,0,0)" fill="rgb(255,255,255)"/></clipPath><g clip-path="url(#_clipPath_WqpoNqGXDEk3EWynIr7tTE8mpA9Js93b)"><g><path d=" M 81.779 84.941 L 38.002 108.325 C 37.751 108.458 37.445 108.431 37.221 108.256 Q 21.752 96.107 17.219 76.56 C 17.206 76.5 17.221 76.439 17.259 76.391 C 17.297 76.344 17.354 76.316 17.414 76.315 Q 49.822 75.905 82.004 71.705 C 82.049 71.7 82.088 71.676 82.114 71.639 C 82.139 71.603 82.148 71.557 82.138 71.514 Q 81.626 69.215 80.971 67.165 Q 78.405 59.128 71.355 54.53 Q 65.869 50.945 59.236 49.897 Q 53.445 48.979 47.833 49.538 Q 40.783 50.238 34.303 52.609 C 34.073 52.675 33.826 52.579 33.71 52.38 L 30.845 47.568 C 30.819 47.528 30.811 47.479 30.824 47.434 C 30.837 47.389 30.87 47.351 30.914 47.33 Q 43.231 41.753 56.535 43.226 Q 64.928 44.155 72.223 48.363 Q 75.627 50.329 78.393 52.854 Q 88.06 61.683 89.268 75.355 Q 89.842 81.854 88.549 88.246 Q 88.473 88.625 87.715 89.386 Q 86.916 90.193 86.736 90.388 Q 82.23 95.334 77.571 100.276 Q 77.387 100.475 77.345 100.208 L 76.14 92.756 C 76.102 92.552 76.157 92.342 76.289 92.178 L 81.836 85.002 Q 81.958 84.845 81.779 84.941 Z  M 74.729 80.519 C 74.729 78.617 73.187 77.076 71.286 77.076 C 69.384 77.076 67.843 78.617 67.843 80.519 C 67.843 82.42 69.384 83.962 71.286 83.962 C 73.187 83.962 74.729 82.42 74.729 80.519 Z  M 66.08 86.658 Q 62.732 83.564 60.143 79.949 C 60.071 79.857 59.954 79.805 59.833 79.811 L 55.721 80.159 C 55.661 80.164 55.608 80.199 55.582 80.252 C 55.556 80.305 55.561 80.367 55.594 80.415 Q 58.651 84.945 62.445 88.498 C 62.528 88.572 62.649 88.591 62.752 88.544 L 66.049 86.873 C 66.089 86.854 66.117 86.816 66.123 86.774 C 66.129 86.73 66.113 86.687 66.08 86.658 Z  M 58.322 90.017 Q 53.961 85.855 50.709 80.779 C 50.647 80.682 50.535 80.623 50.415 80.626 L 45.725 80.982 C 45.682 80.987 45.644 81.013 45.626 81.05 C 45.607 81.089 45.61 81.133 45.633 81.169 Q 49.187 87.488 54.715 92.412 C 54.911 92.584 55.196 92.619 55.43 92.5 L 58.758 90.66 C 58.808 90.638 58.845 90.596 58.857 90.546 C 58.869 90.495 58.855 90.443 58.819 90.403 Q 58.75 90.315 58.655 90.25 Q 58.36 90.051 58.322 90.017 Z  M 46.483 96.597 Q 46.601 96.769 46.754 96.914 C 46.84 96.997 46.969 97.015 47.075 96.96 L 51.306 94.588 C 51.349 94.565 51.378 94.523 51.383 94.475 C 51.387 94.428 51.367 94.382 51.329 94.351 Q 45.312 88.586 41.116 81.379 C 41.057 81.281 40.947 81.221 40.829 81.223 L 35.875 81.467 C 35.829 81.47 35.788 81.495 35.767 81.533 C 35.745 81.571 35.745 81.617 35.768 81.655 Q 39.574 89.986 46.222 96.279 Q 46.341 96.39 46.483 96.597 Z  M 36.311 99.787 Q 37.08 100.552 38.009 101.382 C 38.2 101.554 38.478 101.586 38.702 101.462 L 42.389 99.454 C 42.439 99.426 42.472 99.376 42.479 99.319 C 42.486 99.263 42.465 99.206 42.424 99.167 Q 34.567 91.868 30.569 81.873 C 30.526 81.767 30.422 81.697 30.305 81.697 L 24.95 81.846 C 24.899 81.848 24.853 81.875 24.825 81.917 C 24.798 81.958 24.793 82.011 24.812 82.057 Q 28.695 92.217 36.311 99.787 Z " fill="rgb(255,152,0)"/><path d=" M 57.683 6.488 L 58.066 6.488 L 62.128 7.448 C 62.296 7.489 62.422 7.616 62.449 7.773 L 63.781 15.141 Q 63.811 15.305 63.922 15.183 L 69.174 9.372 Q 69.32 9.368 69.43 9.468 Q 69.721 9.777 69.851 9.827 Q 78.221 13.044 84.957 18.928 C 85.07 19 85.115 19.125 85.068 19.237 L 83.993 23.109 Q 83.86 23.587 84.319 23.457 Q 86.285 22.902 88.201 22.783 C 88.543 22.763 88.873 22.909 89.089 23.174 Q 93.56 28.72 96.131 34.986 Q 96.338 35.483 96.716 35.862 Q 96.686 35.958 96.716 36.053 Q 95.423 36.769 93.924 36.819 Q 93.411 36.838 93.725 37.239 Q 97.443 42.055 98.797 48.027 Q 99.696 52.001 100.228 55.964 Q 100.285 56.373 99.914 56.22 L 97.883 55.375 Q 97.413 55.18 97.562 55.65 Q 99.36 61.396 99.444 67.364 Q 99.474 69.571 99.069 72.375 Q 98.667 75.167 98.208 77.344 Q 97.722 79.639 97.657 81.383 Q 96.961 86.092 98.82 90.449 Q 99.409 91.826 100.565 92.744 C 100.663 92.814 100.78 92.857 100.905 92.871 L 101.865 92.94 Q 102.068 92.955 101.884 93.035 Q 100.5 93.624 99.283 92.955 Q 94.241 90.185 93.522 84.18 Q 92.998 79.826 93.197 76.502 Q 93.53 70.982 92.336 65.596 Q 89.999 55.019 83.561 46.542 Q 81.201 43.432 78.539 40.782 Q 70.077 32.354 58.352 29.359 Q 52.519 27.871 46.238 27.802 Q 44.264 27.783 41.399 28.02 Q 38.912 28.227 36.575 28.468 C 36.187 28.507 35.814 28.305 35.634 27.959 Q 30.707 18.545 23.535 10.925 C 23.437 10.821 23.396 10.676 23.426 10.536 C 23.456 10.396 23.552 10.28 23.684 10.225 Q 29.575 7.719 35.515 6.576 Q 36.376 6.411 36.858 7.107 L 40.614 12.539 Q 40.978 13.063 41.196 12.455 L 43.526 5.987 C 43.566 5.879 43.669 5.8 43.793 5.78 Q 45.545 5.516 46.398 5.547 Q 52.064 5.749 57.683 6.488 Z " fill="rgb(255,152,0)"/><path d=" M 72.816 42.055 Q 75.528 44.496 77.567 47.158 Q 77.636 47.25 77.747 47.357 Q 78.179 47.763 77.601 47.652 Q 77.487 47.629 77.376 47.552 Q 67.667 40.697 55.778 39.519 Q 49.941 38.945 43.797 39.756 C 43.648 39.774 43.512 39.676 43.487 39.534 L 42.432 33.211 C 42.423 33.161 42.436 33.11 42.468 33.069 C 42.5 33.029 42.548 33.004 42.6 33.001 Q 49.814 32.343 56.895 33.877 Q 65.907 35.832 72.816 42.055 Z " fill="rgb(255,152,0)"/><path d=" M 50.4 67.314 Q 37.573 71.46 24.108 72.298 Q 22.253 72.417 20.405 72.646 C 20.345 72.647 20.288 72.633 20.245 72.608 Q 20.168 72.535 20.291 72.486 Q 22.942 71.38 25.497 70.064 Q 29.663 67.918 32.937 64.575 Q 36.338 61.109 35.251 56.132 C 35.227 56.026 35.286 55.917 35.389 55.88 Q 45.293 52.437 55.101 52.885 Q 59.833 53.103 65.043 55.092 Q 74.595 58.745 77.724 68.347 C 77.745 68.409 77.737 68.477 77.702 68.533 C 77.667 68.588 77.609 68.626 77.544 68.634 Q 62.744 70.462 48.116 71.403 Q 47.378 71.449 46.827 71.667 Q 46.176 71.927 46.658 71.418 L 50.453 67.394 Q 50.587 67.253 50.4 67.314 Z " fill="rgb(255,152,0)"/><path d=" M 53.475 114.966 L 51.945 115.635 L 32.409 123.534 Q 32.046 123.68 32.252 123.351 L 38.545 113.317 Q 38.836 112.85 39.306 112.594 L 71.645 94.875 C 71.713 94.84 71.795 94.84 71.863 94.875 C 71.931 94.91 71.977 94.976 71.986 95.051 L 73.462 106.561 C 73.48 106.672 73.416 106.78 73.309 106.822 L 53.475 114.966 Z " fill="rgb(255,152,0)"/></g></g></g></svg>