<?xml version="1.0" encoding="UTF-8" standalone="no"?>
<!-- Generator: Gravit.io -->
<svg xmlns="http://www.w3.org/2000/svg" xmlns:xlink="http://www.w3.org/1999/xlink" style="isolation:isolate" viewBox="0 0 224 332" width="224pt" height="332pt"><defs><clipPath id="_clipPath_aUXrDtP1nr2Ex3R0scDthZiNyOv12tAI"><rect width="224" height="332"/></clipPath></defs><g clip-path="url(#_clipPath_aUXrDtP1nr2Ex3R0scDthZiNyOv12tAI)"><path d=" M 170.24 222.05 L 55.8 283.18 C 55.144 283.529 54.344 283.458 53.76 283 Q 13.32 251.24 1.47 200.14 C 1.437 199.985 1.475 199.824 1.574 199.7 C 1.673 199.576 1.822 199.503 1.98 199.5 Q 86.7 198.43 170.83 187.45 C 170.946 187.436 171.05 187.373 171.117 187.278 C 171.183 187.183 171.206 187.063 171.18 186.95 Q 169.84 180.94 168.13 175.58 Q 161.42 154.57 142.99 142.55 Q 128.65 133.18 111.31 130.44 Q 96.17 128.04 81.5 129.5 Q 63.07 131.33 46.13 137.53 C 45.529 137.701 44.883 137.451 44.58 136.93 L 37.09 124.35 C 37.022 124.246 37.002 124.119 37.037 124 C 37.071 123.882 37.156 123.783 37.27 123.73 Q 69.47 109.15 104.25 113 Q 126.19 115.43 145.26 126.43 Q 154.16 131.57 161.39 138.17 Q 186.66 161.25 189.82 196.99 Q 191.32 213.98 187.94 230.69 Q 187.74 231.68 185.76 233.67 Q 183.67 235.78 183.2 236.29 Q 171.42 249.22 159.24 262.14 Q 158.76 262.66 158.65 261.96 L 155.5 242.48 C 155.401 241.946 155.543 241.397 155.89 240.97 L 170.39 222.21 Q 170.71 221.8 170.24 222.05 Z  M 151.81 210.49 C 151.81 205.519 147.781 201.49 142.81 201.49 C 137.839 201.49 133.81 205.519 133.81 210.49 C 133.81 215.461 137.839 219.49 142.81 219.49 C 147.781 219.49 151.81 215.461 151.81 210.49 Z  M 129.2 226.54 Q 120.45 218.45 113.68 209 C 113.493 208.759 113.188 208.624 112.87 208.64 L 102.12 209.55 C 101.964 209.562 101.826 209.654 101.758 209.792 C 101.69 209.93 101.702 210.093 101.79 210.22 Q 109.78 222.06 119.7 231.35 C 119.916 231.543 120.233 231.591 120.5 231.47 L 129.12 227.1 C 129.225 227.051 129.298 226.953 129.314 226.841 C 129.33 226.728 129.287 226.616 129.2 226.54 Z  M 108.92 235.32 Q 97.52 224.44 89.02 211.17 C 88.856 210.916 88.563 210.763 88.25 210.77 L 75.99 211.7 C 75.877 211.713 75.779 211.781 75.73 211.88 C 75.681 211.98 75.689 212.097 75.75 212.19 Q 85.04 228.71 99.49 241.58 C 100.003 242.031 100.749 242.122 101.36 241.81 L 110.06 237 C 110.191 236.944 110.287 236.834 110.318 236.702 C 110.35 236.57 110.313 236.433 110.22 236.33 Q 110.04 236.1 109.79 235.93 Q 109.02 235.41 108.92 235.32 Z  M 77.97 252.52 Q 78.28 252.97 78.68 253.35 C 78.904 253.566 79.243 253.614 79.52 253.47 L 90.58 247.27 C 90.693 247.209 90.768 247.099 90.78 246.975 C 90.792 246.852 90.74 246.73 90.64 246.65 Q 74.91 231.58 63.94 212.74 C 63.788 212.482 63.5 212.325 63.19 212.33 L 50.24 212.97 C 50.121 212.978 50.014 213.043 49.957 213.142 C 49.9 213.241 49.901 213.361 49.96 213.46 Q 59.91 235.24 77.29 251.69 Q 77.6 251.98 77.97 252.52 Z  M 51.38 260.86 Q 53.39 262.86 55.82 265.03 C 56.317 265.479 57.044 265.563 57.63 265.24 L 67.27 259.99 C 67.399 259.916 67.486 259.786 67.504 259.638 C 67.522 259.49 67.468 259.342 67.36 259.24 Q 46.82 240.16 36.37 214.03 C 36.257 213.752 35.984 213.569 35.68 213.57 L 21.68 213.96 C 21.547 213.966 21.426 214.035 21.354 214.144 C 21.283 214.253 21.27 214.39 21.32 214.51 Q 31.47 241.07 51.38 260.86 Z " fill="rgb(209,70,113)"/><path d=" M 107.25 16.96 L 108.25 16.96 L 118.87 19.47 C 119.309 19.577 119.639 19.91 119.71 20.32 L 123.19 39.58 Q 123.27 40.01 123.56 39.69 L 137.29 24.5 Q 137.67 24.49 137.96 24.75 Q 138.72 25.56 139.06 25.69 Q 160.94 34.1 178.55 49.48 C 178.845 49.67 178.962 49.996 178.84 50.29 L 176.03 60.41 Q 175.68 61.66 176.88 61.32 Q 182.02 59.87 187.03 59.56 C 187.923 59.507 188.787 59.887 189.35 60.58 Q 201.04 75.08 207.76 91.46 Q 208.3 92.76 209.29 93.75 Q 209.21 94 209.29 94.25 Q 205.91 96.12 201.99 96.25 Q 200.65 96.3 201.47 97.35 Q 211.19 109.94 214.73 125.55 Q 217.08 135.94 218.47 146.3 Q 218.62 147.37 217.65 146.97 L 212.34 144.76 Q 211.11 144.25 211.5 145.48 Q 216.2 160.5 216.42 176.1 Q 216.5 181.87 215.44 189.2 Q 214.39 196.5 213.19 202.19 Q 211.92 208.19 211.75 212.75 Q 209.93 225.06 214.79 236.45 Q 216.33 240.05 219.35 242.45 C 219.606 242.631 219.914 242.745 220.24 242.78 L 222.75 242.96 Q 223.28 243 222.8 243.21 Q 219.18 244.75 216 243 Q 202.82 235.76 200.94 220.06 Q 199.57 208.68 200.09 199.99 Q 200.96 185.56 197.84 171.48 Q 191.73 143.83 174.9 121.67 Q 168.73 113.54 161.77 106.61 Q 139.65 84.58 109 76.75 Q 93.75 72.86 77.33 72.68 Q 72.17 72.63 64.68 73.25 Q 58.18 73.79 52.07 74.42 C 51.055 74.522 50.08 73.995 49.61 73.09 Q 36.73 48.48 17.98 28.56 C 17.725 28.288 17.619 27.908 17.697 27.543 C 17.775 27.178 18.026 26.875 18.37 26.73 Q 33.77 20.18 49.3 17.19 Q 51.55 16.76 52.81 18.58 L 62.63 32.78 Q 63.58 34.15 64.15 32.56 L 70.24 15.65 C 70.347 15.369 70.615 15.162 70.94 15.11 Q 75.52 14.42 77.75 14.5 Q 92.56 15.03 107.25 16.96 Z " fill="rgb(209,70,113)"/><path d=" M 146.81 109.94 Q 153.9 116.32 159.23 123.28 Q 159.41 123.52 159.7 123.8 Q 160.83 124.86 159.32 124.57 Q 159.02 124.51 158.73 124.31 Q 133.35 106.39 102.27 103.31 Q 87.01 101.81 70.95 103.93 C 70.561 103.976 70.204 103.72 70.14 103.35 L 67.38 86.82 C 67.357 86.689 67.391 86.554 67.475 86.449 C 67.559 86.344 67.684 86.279 67.82 86.27 Q 86.68 84.55 105.19 88.56 Q 128.75 93.67 146.81 109.94 Z " fill="rgb(209,70,113)"/><path d=" M 88.21 175.97 Q 54.68 186.81 19.48 189 Q 14.63 189.31 9.8 189.91 C 9.643 189.912 9.492 189.876 9.38 189.81 Q 9.18 189.62 9.5 189.49 Q 16.43 186.6 23.11 183.16 Q 34 177.55 42.56 168.81 Q 51.45 159.75 48.61 146.74 C 48.547 146.461 48.701 146.178 48.97 146.08 Q 74.86 137.08 100.5 138.25 Q 112.87 138.82 126.49 144.02 Q 151.46 153.57 159.64 178.67 C 159.696 178.833 159.675 179.011 159.584 179.157 C 159.492 179.302 159.34 179.399 159.17 179.42 Q 120.48 184.2 82.24 186.66 Q 80.31 186.78 78.87 187.35 Q 77.17 188.03 78.43 186.7 L 88.35 176.18 Q 88.7 175.81 88.21 175.97 Z " fill="rgb(209,70,113)"/><path d=" M 96.25 300.54 L 92.25 302.29 L 41.18 322.94 Q 40.23 323.32 40.77 322.46 L 57.22 296.23 Q 57.98 295.01 59.21 294.34 L 143.75 248.02 C 143.928 247.928 144.14 247.928 144.318 248.02 C 144.496 248.112 144.616 248.284 144.64 248.48 L 148.5 278.57 C 148.546 278.859 148.38 279.141 148.1 279.25 L 96.25 300.54 Z " fill="rgb(209,70,113)"/></g></svg>